# xmcd CD database file
#
# Track frame offsets:
#	150
#	13160
#	24372
#	36009
#	49792
#	62711
#	75143
#	86153
#	100424
#	114580
#	128952
#	140986
#	154428
#	167671
#	180547
#	195748
#	208484
#	221547
#
# Disc length: 3106 seconds
#
# Revision: 0
# Processed by: cddbd v1.5.2PL0 Copyright (c) Steve Scherf et al.
# Submitted via: CDex 1.51
#
DISCID=040c2012
DTITLE=Sarah Vaughan - I Feel So Smoochie
DYEAR=1947
DGENRE=Jazz
TTITLE0=The Lords Prayer
TTITLE1=I Can't Get Started With You
TTITLE2=Trouble Is A Man
TTITLE3=I'll Wait And Pray
TTITLE4=I Get A Kick Out Of You
TTITLE5=The Man I Love
TTITLE6=I'm Gonna Sit Right Down And Write Myself A Letter
TTITLE7=The One I Love
TTITLE8=It's You Or No One
TTITLE9=It's Magic
TTITLE10=I Feel So Smoochie
TTITLE11=Love Me Or Leave Me
TTITLE12=A Hundred Years From Today
TTITLE13=Everything I Have Is Yours
TTITLE14=Lover Man
TTITLE15=I'm Through With Love
TTITLE16=Don't Worry About Me
TTITLE17=Gentleman Friend
EXTD=YEAR: 1947
EXTT0=
EXTT1=
EXTT2=
EXTT3=
EXTT4=
EXTT5=
EXTT6=
EXTT7=
EXTT8=
EXTT9=
EXTT10=
EXTT11=
EXTT12=
EXTT13=
EXTT14=
EXTT15=
EXTT16=
EXTT17=
PLAYORDER=
